PathFileType	4	(X/Y/Z)	Patient4_TMGait_0pt2_03_right_19.trc.trc
DataRate	CameraRate	NumFrames	NumMarkers	Units	OrigDataRate	OrigDataStartFrame	OrigNumFrames
47.781569965870	47.781569965870	6	33	mm	47.781569965870	106	       141
Frame#	Time	Sacral			L.Shoulder			Chest			R.Shoulder			Neck			R.ASIS			L.ASIS			R.Thigh.Superior			R.Thigh.Lateral			R.Thigh.Inferior			R.Patella			L.Thigh.Superior			L.Thigh.Lateral			L.Thigh.Inferior			L.Patella			L.Shank.Superior			L.Shank.Lateral			L.Shank.Inferior			R.Shank.Superior			R.Shank.Lateral			R.Shank.Inferior			R.Heel			R.Midfoot.Superior			R.Midfoot.Lateral			R.Toe			L.Heel			L.Midfoot.Lateral			L.Midfoot.Superior			L.Toe			L.Elbow			L.Wrist			R.Elbow			R.Wrist			
		X1	Y1	Z1	X2	Y2	Z2	X3	Y3	Z3	X4	Y4	Z4	X5	Y5	Z5	X6	Y6	Z6	X7	Y7	Z7	X8	Y8	Z8	X9	Y9	Z9	X10	Y10	Z10	X11	Y11	Z11	X12	Y12	Z12	X13	Y13	Z13	X14	Y14	Z14	X15	Y15	Z15	X16	Y16	Z16	X17	Y17	Z17	X18	Y18	Z18	X19	Y19	Z19	X20	Y20	Z20	X21	Y21	Z21	X22	Y22	Z22	X23	Y23	Z23	X24	Y24	Z24	X25	Y25	Z25	X26	Y26	Z26	X27	Y27	Z27	X28	Y28	Z28	X29	Y29	Z29	X30	Y30	Z30	X31	Y31	Z31	X32	Y32	Z32	X33	Y33	Z33	

106	43.047500000000	848.422127592843	990.657114137942	434.915177572327	1062.229302560611	1413.279498037623	265.723139472849	1153.781968520990	1332.208963307870	427.931213416658	1071.779701187586	1408.676872966489	600.967517646849	1057.517566439824	1473.150712416742	421.386713847530	1075.723731536662	917.200126815668	552.894293846183	1066.143831858348	943.085494575637	280.344546464441	1142.216690058391	732.488699848244	516.992591782203	1088.051437407563	616.113346075463	589.227805155956	1168.671870441603	566.522690463337	505.789013199387	1171.396320052583	452.538059047574	529.966675210228	1131.635640477884	741.745774177436	325.382191171527	1055.091254995069	601.726925705708	268.658820506616	1149.405133992618	547.539685159378	347.948685455859	1155.626079658236	472.166890332180	359.874080867794	1113.712616210103	396.816495513514	352.085498193145	1013.225959511286	297.118219630527	292.284353846822	1031.237902303018	182.205756738456	368.686578303049	1085.282822733242	389.744038613182	544.831929035946	960.444449736351	371.447437407745	610.813559352971	929.012749488043	262.515351237489	568.725249297043	718.545304060215	232.426418161138	549.565574358887	877.076223451756	146.700098089604	590.656732858733	768.589825654327	164.847049074569	623.431146974473	924.604213391699	32.608049134986	617.347528279242	876.559867625644	40.404325134425	396.827974536800	955.788886441874	36.890483024956	321.970644255887	1038.762392042937	95.785703356724	356.037911789068	1167.533736206945	39.947666730532	333.390754612749	1097.090607981025	1071.981692708233	122.073800156651	1275.402670222783	887.385236598999	176.675501257721	987.667792313604	1065.599570054908	711.536455220819	1001.135113083534	803.524813068257	718.964407968692	
107	43.068428571429	848.013441106094	991.227687217188	433.317465206157	1065.593313065777	1413.616081414433	265.865593886283	1154.462561569251	1332.617442107321	429.580784613674	1069.591766183560	1409.520893173894	601.072849527214	1058.744919411170	1473.626046689878	421.290405299735	1074.415817999066	918.218738971506	553.288258757337	1067.202899021534	943.776080637243	280.074807023506	1146.067513510709	738.034709888339	515.539173125474	1096.562124828677	619.867184982846	588.143587151327	1178.300931945935	572.792816847700	504.018657959506	1184.322330043478	458.128031112558	528.254213456103	1130.927339724173	740.864650818847	325.107293423533	1053.066249366400	601.766744455448	268.236343209830	1146.358331807159	546.779726944808	347.815854050512	1151.941600928507	471.775629164966	359.993361201969	1109.913239508366	396.529783315398	352.092765168004	1009.662292135854	296.890179472797	291.891867298179	1027.128993136481	182.050968031913	368.592106804725	1098.271209682893	394.122118929201	543.276481709052	972.598133308503	375.848327517272	608.145756454769	942.294762425306	266.300969111973	566.816885302695	732.286317467296	235.070800925176	545.350234236122	890.950346355765	150.788586954383	589.361166226409	781.824472205872	168.679128747234	620.804342040751	938.832645065300	34.596810261499	618.582446525183	872.256375675807	40.328690413706	396.647193370057	951.544570299395	36.807530399233	321.770702883842	1034.504852945461	95.744470061587	355.901896503726	1163.300677704225	39.949536593605	333.348937169269	1109.512770206002	1074.796225100847	120.590531178416	1297.845824627686	901.746638945413	178.682983114012	967.364103814393	1071.583568885980	709.693863831930	965.834050021327	809.298027306057	717.518215924318	
108	43.089357142857	847.568005358365	992.715269174276	431.953068339235	1069.280443682108	1414.637272816223	266.362037726163	1155.227381043707	1333.732679044496	431.641675121738	1067.448072676234	1411.299910811837	601.391303240328	1060.141035937622	1474.814411234821	421.470134495766	1072.848219924819	920.039025899485	554.287215326000	1068.289252807074	945.195774561419	280.155938148304	1148.790566954779	744.068548929931	514.904212188803	1103.459660469071	624.423612053115	587.869140067770	1186.029113543649	579.595550748519	503.137650474936	1195.367022533199	464.685409698166	527.401395692395	1129.517484646922	740.314577403953	325.356820783472	1050.053438506606	602.414752243881	267.976087990225	1142.099656277720	546.344142083673	347.817144282607	1146.892796337191	471.806387465646	360.151827103494	1104.998874438222	396.769054435230	352.087035536957	1005.269557281289	296.915883073962	291.506955481961	1022.622409640105	182.183761711978	368.480513202668	1110.175965494233	399.013470531503	542.691586942082	984.343785303347	379.102925742851	606.789299617627	956.468791816218	268.806846013759	566.061343742318	747.542223061604	233.007794257788	542.978135952996	907.499743684217	153.494300664524	589.214857041745	797.912594735541	169.038681173022	619.794816061956	957.855849016989	37.130588141550	620.668097417387	867.923697027358	40.260334357199	396.480887473497	947.276498577355	36.738550894423	321.587726005788	1030.226567718126	95.737800138927	355.740511645468	1159.044019774455	39.966986629881	333.314173000404	1121.267517859373	1078.531079582521	119.550310783146	1319.047260050976	917.936718155086	181.077284937232	948.280221771499	1079.038477339384	707.533584376246	934.001571093141	817.279157490864	715.413445125648	
109	43.110285714286	847.111002235565	995.003189982999	430.810858613722	1073.267617867963	1416.238884256930	267.201924544059	1156.094583014391	1335.435085075200	434.060914554530	1065.432657511837	1413.865752953534	601.919788233194	1061.717834387037	1476.601019560650	421.922867868813	1071.067403099545	922.542926886508	555.842289516665	1069.415997800587	947.242064290646	280.531822930688	1150.373208110444	750.271203660291	515.107547632094	1108.602133749666	629.488645511938	588.443293086009	1191.706435402099	586.533825249931	503.200155502967	1204.303386145761	471.869841104446	527.481055626397	1127.441261344775	740.056579767567	326.092907493859	1046.147657092505	603.600990402959	267.852356280551	1136.759032148161	546.202796276108	347.922394743798	1140.627347674538	472.206813934590	360.314031669736	1099.100278961261	397.474358756500	352.043877720872	1000.132465403652	297.167415013798	291.122851691638	1017.760405170400	182.569586124853	368.346308419164	1120.835004451234	404.143674930169	543.190222373538	995.679597535817	380.937342589866	606.985282866612	971.524051341373	269.832333279358	566.703949254632	764.490164768295	226.193189576754	542.894095121606	926.712019428442	154.606997013668	590.491179995024	816.957528068091	165.827590713183	620.758438546345	981.522994012119	40.053926285057	623.747572510383	863.568244858119	40.196482712183	396.330496943513	942.987505322139	36.679988777324	321.423182460519	1025.929450144313	95.760648948387	355.559081488217	1154.766889177306	39.998213748871	333.287111856623	1132.371481195855	1083.007588211171	118.955462408762	1338.855021833721	935.703388246453	183.888773376507	930.791302249231	1087.606120663653	705.224158130071	906.024546998853	826.742847990277	712.859899026116	
110	43.131214285714	846.668134165151	997.900516022621	429.903615890857	1077.491401162178	1418.260217880538	268.371435941350	1157.067899897160	1337.549237429639	436.775377502875	1063.620116861892	1416.998111035992	602.658938124157	1063.466732218852	1478.814159537616	422.646246752179	1069.140970046633	925.543757908378	557.878737490551	1070.595788286817	949.747310645982	281.153489633407	1150.856491354490	756.283501212442	516.138955510800	1111.920511136431	634.721227724086	589.885713383592	1195.268868830799	593.180841561774	504.237509773343	1210.986007207403	479.293794409855	528.529821870279	1124.781329706073	740.021544306755	327.250073630022	1041.511143837610	605.204754119736	267.843661365478	1130.557689736473	546.294677114124	348.096607950716	1133.394894692308	472.888256837502	360.447418713376	1092.431754324925	398.542684629138	351.946936738411	994.394691500124	297.596627939192	290.740824793532	1012.615331139265	183.150734271486	368.189315358148	1130.127623742276	409.226695760936	544.828035306102	1006.624169070838	381.184404628490	608.872234205597	987.395838846817	269.308947787307	568.884774783566	783.271589164029	214.946554481046	545.344717464912	948.413394293740	154.076838780038	593.332039727887	838.916846750409	159.249220727824	623.870028773198	1009.353964980143	43.223346393351	627.863836626435	859.199780268614	40.134651111815	396.198433843351	938.682414402912	36.628966832886	321.278079669484	1021.617510657704	95.805298314932	355.366689522391	1150.474233105625	40.039933081952	333.267676932958	1142.852567381092	1087.993669920367	118.819106255983	1357.152621414867	954.721545498794	187.139837286784	915.181649390880	1096.841865441715	702.952959297024	882.139454960353	836.953858419220	710.073356997078	
111	43.152142857143	846.263338409637	1001.164416459589	429.265301439682	1081.853352502517	1420.501593951223	269.855385721752	1158.138724798005	1339.862597566209	439.718391671910	1062.074165116932	1420.428479515020	603.615952604521	1065.360876277048	1481.243794712265	423.640378324793	1067.151351914532	928.804108615291	560.303861757149	1071.837857955646	952.492345068363	281.991526401160	1150.327175997842	761.739005200082	517.965658163847	1113.417095630492	639.766622904470	592.198367344026	1196.739047398728	599.122705723304	506.261364409440	1215.356097149365	486.559096497378	530.550401692279	1121.665707631483	740.120188562629	328.746566335297	1036.365549731421	607.067703464106	267.938630079831	1123.793023724121	546.534950011240	348.310836664694	1125.529300667509	473.734316231304	360.532408286051	1085.275217851859	399.837903725284	351.794481927656	988.248607761209	298.141065870904	290.372943821393	1007.284362049739	183.851848831712	368.016036037524	1137.974111164996	413.990344075446	547.595760281526	1017.196712621799	379.798286513462	612.468159818562	1003.946570641513	267.303979480006	572.612508871616	803.929019538865	199.911139284069	550.345069518510	972.261495497012	152.014629060439	597.713947045696	863.573481843976	149.773056412045	629.090596735344	1040.579526550763	46.533572078488	632.920836945210	854.829883100626	40.073032959980	396.087611823159	934.367390024548	36.583572201807	321.152970026117	1017.296197815255	95.862251805756	355.175261874365	1146.172261241902	40.087693336265	333.255132671984	1152.740968180459	1093.222591482214	119.163998867786	1373.856279120358	974.612951647391	190.838900985452	901.636145562160	1106.250855570957	700.905440795058	862.435573532765	847.208502113320	707.273724035947	
